<?xml version="1.0" encoding="UTF-8"?>
<svg xmlns="http://www.w3.org/2000/svg" viewBox="0 0 64 64" role="img" aria-label="Tigo Monitor">
  <defs>
    <!-- Background gradient — matches the SPA sidebar brand-logo (accent → accent-2). -->
    <linearGradient id="bgGrad" x1="0" y1="0" x2="1" y2="1">
      <stop offset="0%"  stop-color="#4ade80"/>
      <stop offset="100%" stop-color="#38bdf8"/>
    </linearGradient>
    <!-- Highlight gradient for the "live" cell — slight glow within the same family. -->
    <radialGradient id="liveGrad" cx="50%" cy="40%" r="60%">
      <stop offset="0%"  stop-color="#ffffff" stop-opacity="0.85"/>
      <stop offset="60%" stop-color="#ffffff" stop-opacity="0.20"/>
      <stop offset="100%" stop-color="#ffffff" stop-opacity="0"/>
    </radialGradient>
  </defs>

  <!-- Rounded background tile -->
  <rect x="0" y="0" width="64" height="64" rx="14" ry="14" fill="url(#bgGrad)"/>

  <!--
    3×3 panel grid representing a monitored array. Cells are drawn as
    rounded rects with a subtle inset; one cell carries the "live" highlight
    (mirroring the dashboard's heatmap "good" tile).
  -->
  <g transform="translate(10,10)" fill="#061018" fill-opacity="0.18">
    <rect x="0"  y="0"  width="13" height="13" rx="2"/>
    <rect x="15" y="0"  width="13" height="13" rx="2"/>
    <rect x="30" y="0"  width="13" height="13" rx="2"/>

    <rect x="0"  y="15" width="13" height="13" rx="2"/>
    <!-- live cell -->
    <rect x="15" y="15" width="13" height="13" rx="2" fill="#061018" fill-opacity="0.55"/>
    <rect x="30" y="15" width="13" height="13" rx="2"/>

    <rect x="0"  y="30" width="13" height="13" rx="2"/>
    <rect x="15" y="30" width="13" height="13" rx="2"/>
    <rect x="30" y="30" width="13" height="13" rx="2"/>
  </g>
  <!-- Glow over the live cell -->
  <rect x="25" y="25" width="13" height="13" rx="2" fill="url(#liveGrad)"/>

  <!--
    Telemetry pulse — a small sparkline crossing the bottom third, rendered
    in the same off-black so it reads as part of the icon rather than a
    decoration. Implies "monitoring" without naming it.
  -->
  <path d="M 8 50
           L 18 50
           L 22 44
           L 28 52
           L 34 47
           L 40 49
           L 56 49"
        fill="none" stroke="#061018" stroke-opacity="0.55"
        stroke-width="2" stroke-linecap="round" stroke-linejoin="round"/>
</svg>
